<svg width="34" height="35" viewBox="0 0 34 35" fill="none" xmlns="http://www.w3.org/2000/svg">
<path d="M33.96 3.03829C33.8863 1.68772 32.8122 0.613735 31.4617 0.540024C28.7365 0.391141 23.4038 0.535974 18.3046 3.17343C15.7051 4.51802 12.9559 6.79768 10.7619 9.4279C10.7349 9.46031 10.7086 9.49292 10.6817 9.52539L5.7026 9.91001C4.88302 9.97336 4.15301 10.4029 3.69972 11.0885L0.302779 16.2265C-0.0410064 16.7465 -0.0956587 17.3972 0.156486 17.9671C0.408697 18.5372 0.926931 18.9344 1.54285 19.0298L5.7378 19.6796C5.72299 19.7611 5.70811 19.8426 5.6945 19.9241C5.55485 20.7595 5.83163 21.6184 6.435 22.2217L12.2782 28.065C12.7785 28.5653 13.4544 28.841 14.147 28.841C14.2897 28.841 14.4331 28.8293 14.5759 28.8054C14.6574 28.7918 14.7389 28.777 14.8204 28.7621L15.4702 32.9572C15.5656 33.5731 15.9628 34.0914 16.5327 34.3435C16.7699 34.4485 17.0208 34.5002 17.2706 34.5002C17.6215 34.5002 17.9698 34.398 18.2734 34.1973L23.4114 30.8003C24.0971 30.3469 24.5266 29.6169 24.5898 28.7974L24.9744 23.8183C25.0069 23.7915 25.0396 23.7652 25.072 23.7382C27.7023 21.5442 29.982 18.795 31.3265 16.1954C33.9641 11.096 34.1087 5.76327 33.96 3.03829ZM22.3127 29.1384L17.3979 32.3879L16.7647 28.2996C18.8419 27.6888 20.8967 26.7107 22.8543 25.4003L22.6037 28.6439C22.5881 28.8462 22.482 29.0265 22.3127 29.1384ZM13.6869 26.6563L7.84361 20.8131C7.69452 20.6639 7.62559 20.4544 7.6594 20.2526C7.83311 19.2138 8.10306 18.2249 8.43721 17.2934L17.2047 26.0609C16.0859 26.4616 15.0837 26.7007 14.2474 26.8406C14.0452 26.8742 13.836 26.8054 13.6869 26.6563ZM5.85607 11.8963L9.09961 11.6457C7.78915 13.6033 6.81099 15.6581 6.20025 17.7353L2.11202 17.1021L5.36154 12.1873C5.4735 12.0179 5.65379 11.9119 5.85607 11.8963ZM23.796 22.2083C22.1868 23.5505 20.6247 24.5214 19.1849 25.2239L9.27572 15.3147C10.196 13.4351 11.3191 11.87 12.2917 10.704C14.3221 8.26991 16.8473 6.17008 19.2199 4.94289C23.8998 2.52218 28.8306 2.39183 31.3532 2.52916C31.6871 2.54735 31.9527 2.81291 31.9709 3.14687C32.1084 5.66951 31.9778 10.6002 29.5571 15.2802C28.3299 17.6527 26.2301 20.1779 23.796 22.2083Z" fill="#C4C4C4"/>
</svg>
